<!-- <svg width="85" height="61" viewBox="0 0 85 61" fill="none" xmlns="http://www.w3.org/2000/svg">
<path fill-rule="evenodd" clip-rule="evenodd" d="M84.5 0.5C60.945 0.5 41.703 5.13415 28.086 14.7795C14.4972 24.4049 6.56621 38.9817 5.51211 58.7547L1.35359 54.5962L0.646484 55.3033L5.59623 60.253L5.94979 60.6066L6.30334 60.253L11.2531 55.3033L10.546 54.5962L6.52086 58.6213C7.60028 39.213 15.3952 24.9943 28.664 15.5955C42.0471 6.11585 61.055 1.5 84.5 1.5V0.5ZM6.13529 59.0068L5.7445 58.9871L5.94979 59.1923L6.13529 59.0068Z" fill="black"/>
</svg> -->

<svg width="84" height="62" fill="none" xmlns="http://www.w3.org/2000/svg"><path fill-rule="evenodd" clip-rule="evenodd" d="M83.854.5c-23.556 0-42.885 4.634-56.59 14.279-13.507 9.505-21.497 23.84-22.71 43.242a7.924 7.924 0 00-.625-.874C2.957 55.969 1.565 55 0 55v1.111c1.102 0 2.21.698 3.071 1.742.862 1.044 1.373 2.313 1.373 3.258h1.112c0-.945.511-2.213 1.373-3.258.861-1.044 1.97-1.742 3.071-1.742V55c-1.565 0-2.957.969-3.929 2.147a7.887 7.887 0 00-.502.68c1.25-19 9.096-32.96 22.27-42.23C41.313 6.115 60.41 1.5 83.855 1.5v-1z" fill="#000"/></svg>