<svg width="80" height="80" viewBox="0 0 80 80" fill="none" xmlns="http://www.w3.org/2000/svg">
<path fill-rule="evenodd" clip-rule="evenodd" d="M80 50.5265C63.7221 50.5265 50.5263 63.7223 50.5263 80.0002H42.1052C42.1052 59.0715 59.0713 42.1055 80 42.1055V50.5265Z" fill="#A530ED"/>
<path fill-rule="evenodd" clip-rule="evenodd" d="M80.0001 42.1051C59.0714 42.1051 42.1054 59.0712 42.1054 79.9999H33.6843C33.6843 54.4204 54.4206 33.6841 80.0001 33.6841V42.1051Z" fill="#29D9FF"/>
<path fill-rule="evenodd" clip-rule="evenodd" d="M80 33.6842C54.4205 33.6842 33.6842 54.4205 33.6842 80H25.2632C25.2632 49.7697 49.7697 25.2632 80 25.2632V33.6842Z" fill="#0EFF8B"/>
<path fill-rule="evenodd" clip-rule="evenodd" d="M79.9999 25.2633C49.7696 25.2633 25.2631 49.7699 25.2631 80.0002H16.842C16.842 45.119 45.1188 16.8423 79.9999 16.8423V25.2633Z" fill="#FCFF65"/>
<path fill-rule="evenodd" clip-rule="evenodd" d="M80.0001 16.842C45.1189 16.842 16.8422 45.1187 16.8422 79.9998H8.42114C8.42114 40.4679 40.4681 8.4209 80.0001 8.4209V16.842Z" fill="#FFA41B"/>
<path fill-rule="evenodd" clip-rule="evenodd" d="M80 8.42105C40.468 8.42105 8.42105 40.468 8.42105 80H0C0 35.8172 35.8172 0 80 0V8.42105Z" fill="#FF1900"/>
</svg>
