<svg preserveAspectRatio="none" width="100%" height="100%" overflow="visible" style="display: block;" viewBox="0 0 16 16" fill="none" xmlns="http://www.w3.org/2000/svg">
<g id="Frame" clip-path="url(#clip0_2073_181)">
<path id="Vector" d="M3.42677 10.0788C3.42677 10.9985 2.68346 11.7418 1.76377 11.7418C0.844088 11.7418 0.100781 10.9985 0.100781 10.0788C0.100781 9.15913 0.844088 8.41582 1.76377 8.41582H3.42677V10.0788ZM4.25826 10.0788C4.25826 9.15913 5.00157 8.41582 5.92125 8.41582C6.84094 8.41582 7.58425 9.15913 7.58425 10.0788V14.2363C7.58425 15.156 6.84094 15.8993 5.92125 15.8993C5.00157 15.8993 4.25826 15.156 4.25826 14.2363V10.0788Z" fill="var(--fill-0, #E01E5A)"/>
<path id="Vector_2" d="M5.92135 3.40157C5.00167 3.40157 4.25836 2.65826 4.25836 1.73858C4.25836 0.818893 5.00167 0.0755859 5.92135 0.0755859C6.84104 0.0755859 7.58434 0.818893 7.58434 1.73858V3.40157H5.92135ZM5.92135 4.24566C6.84104 4.24566 7.58434 4.98897 7.58434 5.90866C7.58434 6.82834 6.84104 7.57165 5.92135 7.57165H1.75127C0.831588 7.57165 0.0882813 6.82834 0.0882813 5.90866C0.0882813 4.98897 0.831588 4.24566 1.75127 4.24566H5.92135Z" fill="var(--fill-0, #36C5F0)"/>
<path id="Vector_3" d="M12.586 5.90866C12.586 4.98897 13.3293 4.24566 14.249 4.24566C15.1687 4.24566 15.912 4.98897 15.912 5.90866C15.912 6.82834 15.1687 7.57165 14.249 7.57165H12.586V5.90866ZM11.7545 5.90866C11.7545 6.82834 11.0112 7.57165 10.0915 7.57165C9.17182 7.57165 8.42852 6.82834 8.42852 5.90866V1.73858C8.42852 0.818893 9.17182 0.0755859 10.0915 0.0755859C11.0112 0.0755859 11.7545 0.818893 11.7545 1.73858V5.90866Z" fill="var(--fill-0, #2EB67D)"/>
<path id="Vector_4" d="M10.0915 12.5733C11.0112 12.5733 11.7545 13.3166 11.7545 14.2363C11.7545 15.156 11.0112 15.8993 10.0915 15.8993C9.17182 15.8993 8.42852 15.156 8.42852 14.2363V12.5733H10.0915ZM10.0915 11.7418C9.17182 11.7418 8.42852 10.9985 8.42852 10.0788C8.42852 9.15913 9.17182 8.41582 10.0915 8.41582H14.2616C15.1813 8.41582 15.9246 9.15913 15.9246 10.0788C15.9246 10.9985 15.1813 11.7418 14.2616 11.7418H10.0915Z" fill="var(--fill-0, #ECB22E)"/>
</g>
<defs>
<clipPath id="clip0_2073_181">
<rect width="16" height="16" fill="white"/>
</clipPath>
</defs>
</svg>
